<?xml version="1.0" encoding="utf-8"?>
<!-- Generator: Adobe Illustrator 24.1.1, SVG Export Plug-In . SVG Version: 6.00 Build 0)  -->
<svg version="1.1" id="Layer_1" xmlns="http://www.w3.org/2000/svg" xmlns:xlink="http://www.w3.org/1999/xlink" x="0px" y="0px"
	 viewBox="0 0 28.3 28.3" style="enable-background:new 0 0 28.3 28.3;" xml:space="preserve">
<style type="text/css">
	.st0{fill:none;stroke:#0AAD0A;stroke-width:1.2828;stroke-linecap:round;stroke-miterlimit:10;}
	.st1{fill:none;stroke:#0AAD0A;stroke-width:1.069;stroke-linecap:round;stroke-miterlimit:10;}
</style>
<g>
	<path class="st0" d="M7.6,22.7c1.3,0,2.3-1,2.3-2.3c0-1.3-1-2.3-2.3-2.3s-2.3,1-2.3,2.3C5.3,21.7,6.3,22.7,7.6,22.7z"/>
	<path class="st0" d="M6.6,9.2h13.9"/>
	<path class="st0" d="M7.8,12h12.1"/>
	<path class="st0" d="M7.2,18.1h9c1,0,1.9-0.6,2.2-1.6L22,5.8c0.3-0.9,1.2-1.6,2.2-1.6h2.7"/>
	<path class="st1" d="M7.6,20.7c0.2,0,0.3-0.1,0.3-0.3c0-0.2-0.1-0.3-0.3-0.3c-0.2,0-0.3,0.1-0.3,0.3C7.2,20.6,7.4,20.7,7.6,20.7z"
		/>
	<path class="st0" d="M15.9,22.7c1.3,0,2.3-1,2.3-2.3c0-1.3-1-2.3-2.3-2.3c-1.3,0-2.3,1-2.3,2.3C13.6,21.7,14.6,22.7,15.9,22.7z"/>
	<path class="st1" d="M15.9,20.7c0.2,0,0.3-0.1,0.3-0.3c0-0.2-0.1-0.3-0.3-0.3c-0.2,0-0.3,0.1-0.3,0.3
		C15.6,20.6,15.7,20.7,15.9,20.7z"/>
	<path class="st0" d="M18.8,15.2H6.7c-0.4,0-0.8-0.3-0.9-0.7L3.8,7C3.7,6.6,4,6.3,4.3,6.3h15.5"/>
	<path class="st0" d="M1.4,24.1c0,0,8.8-3,20.8,0"/>
</g>
</svg>
